<svg version="1.1" id="Layer_1" height="40" width="40" xmlns="http://www.w3.org/2000/svg" x="0" y="0" viewBox="0 0 512 512" style="enable-background:new 0 0 512 512" xml:space="preserve"><path d="M256 0c141.4 0 256 114.6 256 256S397.4 512 256 512 0 397.4 0 256 114.6 0 256 0zm0 35.7C134.3 35.7 35.7 134.3 35.7 256S134.3 476.3 256 476.3 476.3 377.7 476.3 256 377.7 35.7 256 35.7zM312.5 175c6.8-6.8 17.9-6.8 24.7 0 6.8 6.8 6.8 17.9 0 24.7L281 255.9l56.2 56.1c6.8 6.8 6.8 17.9 0 24.7-6.8 6.8-17.9 6.8-24.7 0l-56.2-56.2-56.2 56.2c-6.1 6.1-15.7 6.7-22.5 1.8l-2.2-1.8c-6.8-6.8-6.8-17.9 0-24.7l56.2-56.1-56.2-56.1c-6.8-6.8-6.8-17.9 0-24.7 6.8-6.8 17.9-6.8 24.7 0l56.2 56.2 56.2-56.3z" style="fill:#555"/></svg>