<svg xmlns="http://www.w3.org/2000/svg" width="256" height="256" xml:space="preserve"><g><g style="stroke:none;stroke-width:0;stroke-dasharray:none;stroke-linecap:butt;stroke-linejoin:miter;stroke-miterlimit:10;fill:none;fill-rule:nonzero;opacity:1" transform="translate(1.964 1.964) scale(2.8008)"><rect x="3.44" y="11.14" rx="0" ry="0" width="84.42" height="67.06" style="stroke:none;stroke-width:1px;stroke-dasharray:none;stroke-linecap:butt;stroke-linejoin:miter;stroke-miterlimit:10;fill:#f9f9f9;fill-rule:nonzero;opacity:1"/><path d="M87.788 9.121H2.212A2.213 2.213 0 0 0 0 11.334v67.333c0 1.222.991 2.212 2.212 2.212h85.575a2.212 2.212 0 0 0 2.212-2.212V11.334a2.212 2.212 0 0 0-2.211-2.213zm-46.396 5.436c0-.63.511-1.141 1.141-1.141h5.133c.63 0 1.141.511 1.141 1.141v5.133c0 .63-.511 1.141-1.141 1.141h-5.133c-.63 0-1.141-.511-1.141-1.141v-5.133zm-12.224 0c0-.63.511-1.141 1.141-1.141h5.133c.63 0 1.141.511 1.141 1.141v5.133c0 .63-.511 1.141-1.141 1.141h-5.133c-.63 0-1.141-.511-1.141-1.141v-5.133zM12.53 75.443c0 .63-.511 1.141-1.141 1.141H6.256c-.63 0-1.141-.511-1.141-1.141V70.31c0-.63.511-1.141 1.141-1.141h5.133c.63 0 1.141.511 1.141 1.141v5.133zm0-55.753c0 .63-.511 1.141-1.141 1.141H6.256c-.63 0-1.141-.511-1.141-1.141v-5.133c0-.63.511-1.141 1.141-1.141h5.133c.63 0 1.141.511 1.141 1.141v5.133zm12.026 55.753c0 .63-.511 1.141-1.141 1.141h-5.133c-.63 0-1.141-.511-1.141-1.141V70.31c0-.63.511-1.141 1.141-1.141h5.133c.63 0 1.141.511 1.141 1.141v5.133zm0-55.753c0 .63-.511 1.141-1.141 1.141h-5.133c-.63 0-1.141-.511-1.141-1.141v-5.133c0-.63.511-1.141 1.141-1.141h5.133c.63 0 1.141.511 1.141 1.141v5.133zm12.026 55.753c0 .63-.511 1.141-1.141 1.141h-5.133c-.63 0-1.141-.511-1.141-1.141V70.31c0-.63.511-1.141 1.141-1.141h5.133c.63 0 1.141.511 1.141 1.141v5.133zm.757-18.171A1.47 1.47 0 0 1 35.135 56V34a1.469 1.469 0 0 1 2.204-1.272l19.052 11a1.47 1.47 0 0 1 0 2.545L37.339 57.272zm11.467 18.171c0 .63-.511 1.141-1.141 1.141h-5.133c-.63 0-1.141-.511-1.141-1.141V70.31c0-.63.511-1.141 1.141-1.141h5.133c.63 0 1.141.511 1.141 1.141v5.133zm12.026 0c0 .63-.511 1.141-1.141 1.141h-5.133c-.63 0-1.141-.511-1.141-1.141V70.31c0-.63.511-1.141 1.141-1.141h5.133c.63 0 1.141.511 1.141 1.141v5.133zm0-55.753c0 .63-.511 1.141-1.141 1.141h-5.133c-.63 0-1.141-.511-1.141-1.141v-5.133c0-.63.511-1.141 1.141-1.141h5.133c.63 0 1.141.511 1.141 1.141v5.133zm12.027 55.753c0 .63-.511 1.141-1.141 1.141h-5.133c-.63 0-1.141-.511-1.141-1.141V70.31c0-.63.511-1.141 1.141-1.141h5.133c.63 0 1.141.511 1.141 1.141v5.133zm0-55.753c0 .63-.511 1.141-1.141 1.141h-5.133c-.63 0-1.141-.511-1.141-1.141v-5.133c0-.63.511-1.141 1.141-1.141h5.133c.63 0 1.141.511 1.141 1.141v5.133zm12.026 55.753c0 .63-.511 1.141-1.141 1.141h-5.133c-.63 0-1.141-.511-1.141-1.141V70.31c0-.63.511-1.141 1.141-1.141h5.133c.63 0 1.141.511 1.141 1.141v5.133zm0-55.753c0 .63-.511 1.141-1.141 1.141h-5.133c-.63 0-1.141-.511-1.141-1.141v-5.133c0-.63.511-1.141 1.141-1.141h5.133c.63 0 1.141.511 1.141 1.141v5.133z" style="stroke:none;stroke-width:1px;stroke-dasharray:none;stroke-linecap:butt;stroke-linejoin:miter;stroke-miterlimit:10;fill:#d22215;fill-rule:nonzero;opacity:1"/></g></g></svg>